# xmcd
#
# Track frame offsets:
#       150
#       19275
#       32450
#       45184
#       62978
#       72743
#       86694
#       101994
#       113473
#       127491
#       139290
#       152801
#       161458
#
# Disc length: 2356 seconds
#
# Revision: 1
# Processed by: cddbd v1.5.1PL0 Copyright (c) Steve Scherf et al.
# Submitted via: MusiCat 1.1
#
DISCID=b809320d
DTITLE=Tom Doughty - The Bell
DYEAR=1900
DGENRE=
TTITLE0=Banty Rooster
TTITLE1=Tell Me
TTITLE2=Under The Bright Moon
TTITLE3=Come On In My Kitchen
TTITLE4=Sleepwalk
TTITLE5=Built Right On The Ground
TTITLE6=Into The Bong
TTITLE7=Mama In The Kitchen
TTITLE8=Ben Hall
TTITLE9=Been On The Road So Long
TTITLE10=Come Back Baby
TTITLE11=I'll Make Love To You Anytime
TTITLE12=The Bell
EXTD=Corker Music\nCCD001\nwww.tomdoughty.com
EXTT0=
EXTT1=
EXTT2=
EXTT3=
EXTT4=
EXTT5=
EXTT6=
EXTT7=
EXTT8=
EXTT9=
EXTT10=
EXTT11=
EXTT12=
PLAYORDER=
